<svg width="96" height="28" viewBox="0 0 96 28" fill="none" xmlns="http://www.w3.org/2000/svg">
<path d="M0 27.6827V0H5.88065V22.3286H14.1718L12.5 27.6827H0Z" fill="white"/>
<path d="M33.7938 27.6827L31.8594 21.0991H22.845L20.9106 27.6827H14.9525L23.8509 0H31.1243L39.9066 27.6827H33.7938ZM27.4102 5.47309H27.2168L24.2378 15.983H30.4279L27.4102 5.47309Z" fill="white"/>
<path d="M42.8819 28C42.4692 28 42.1425 27.9119 41.9018 27.7356C41.6783 27.5593 41.5665 27.2949 41.5665 26.9424C41.5665 26.819 41.5751 26.678 41.5923 26.5194C41.6095 26.3431 41.6353 26.1844 41.6697 26.0434C41.7384 25.6909 41.8846 25.3648 42.1081 25.0652C42.3489 24.7479 42.7615 24.5892 43.3462 24.5892C43.7588 24.5892 44.0769 24.6774 44.3005 24.8536C44.5412 25.0299 44.6616 25.2943 44.6616 25.6468C44.6616 25.7702 44.653 25.9201 44.6358 26.0963C44.6186 26.255 44.5928 26.4048 44.5584 26.5458C44.524 26.7221 44.4724 26.8983 44.4036 27.0746C44.3349 27.2509 44.2317 27.4095 44.0941 27.5505C43.9738 27.6739 43.8104 27.7797 43.6041 27.8678C43.4149 27.9559 43.1742 28 42.8819 28Z" fill="white"/>
<path d="M52.6447 28C51.8881 28 51.2089 27.8678 50.6071 27.6034C50.0225 27.339 49.5238 26.96 49.1111 26.4665C48.6985 25.9729 48.3804 25.3912 48.1568 24.7214C47.9333 24.034 47.8215 23.2672 47.8215 22.4212C47.8215 21.2402 47.9677 20.1209 48.26 19.0633C48.5695 18.0057 49.008 17.0803 49.5754 16.2871C50.1428 15.4939 50.822 14.8681 51.613 14.4098C52.4212 13.9515 53.3325 13.7224 54.347 13.7224C55.5334 13.7224 56.4964 14.022 57.2357 14.6213C57.9923 15.2207 58.4996 15.9874 58.7575 16.9216L57.1068 17.6884C56.6597 16.2606 55.7226 15.5467 54.2954 15.5467C53.2293 15.5467 52.361 15.8905 51.6904 16.5779C51.037 17.2653 50.5899 18.2172 50.3492 19.4334L49.9107 21.6544C49.8763 21.8483 49.8505 22.0598 49.8333 22.289C49.8161 22.5005 49.8075 22.6856 49.8075 22.8442C49.8075 23.8313 50.0569 24.6333 50.5555 25.2502C51.0542 25.8672 51.8193 26.1756 52.851 26.1756C53.5044 26.1756 54.0977 25.9906 54.6307 25.6204C55.1809 25.2326 55.7226 24.5275 56.2556 23.5052L57.829 24.2984C57.2787 25.4794 56.5651 26.396 55.6882 27.0482C54.8113 27.6827 53.7968 28 52.6447 28Z" fill="white"/>
<path d="M60.0801 27.6827L62.7626 14.0397H64.7486L64.2069 16.7365H64.3359C64.8001 15.7142 65.3418 14.9562 65.9608 14.4627C66.597 13.9692 67.4052 13.7224 68.3853 13.7224C69.3138 13.7224 70.036 13.9868 70.5518 14.5156C71.0677 15.0444 71.3772 15.7847 71.4804 16.7365H71.6351C72.0822 15.7142 72.641 14.9562 73.3116 14.4627C73.9822 13.9692 74.8076 13.7224 75.7877 13.7224C76.9053 13.7224 77.7393 14.0485 78.2895 14.7007C78.857 15.3528 79.1407 16.2782 79.1407 17.4769C79.1407 18.0409 79.0805 18.6314 78.9601 19.2483L77.6705 25.8848H79.5534L79.2181 27.6827H77.361C76.8452 27.6827 76.4325 27.5593 76.123 27.3126C75.8135 27.0658 75.6587 26.6868 75.6587 26.1756C75.6587 26.0346 75.6845 25.8319 75.7361 25.5675L76.9741 19.2483C77.0773 18.7195 77.1289 18.2348 77.1289 17.7941C77.1289 17.0538 76.9655 16.4986 76.6388 16.1284C76.3293 15.7583 75.8135 15.5732 75.0913 15.5732C74.2831 15.5732 73.5352 15.9345 72.8474 16.6572C72.4175 17.0979 72.0564 17.6355 71.7641 18.2701C71.489 18.9046 71.2998 19.5039 71.1966 20.068L69.7007 27.6827H67.7147L69.3654 19.2748C69.4686 18.746 69.5201 18.2348 69.5201 17.7413C69.5201 16.2959 68.9011 15.5732 67.6631 15.5732C67.216 15.5732 66.7948 15.6701 66.3993 15.864C66.0038 16.0579 65.6599 16.3135 65.3676 16.6308C64.8861 17.1243 64.4906 17.6884 64.1811 18.3229C63.8716 18.9575 63.6653 19.5392 63.5621 20.068L62.0662 27.6827H60.0801Z" fill="white"/>
<path d="M92.2859 27.6827C91.7013 27.6827 91.2628 27.5329 90.9705 27.2332C90.6954 26.9336 90.5578 26.537 90.5578 26.0434C90.5578 25.8319 90.5836 25.594 90.6352 25.3296L90.7642 24.7214H90.6868C90.1365 25.8672 89.5261 26.7044 88.8555 27.2332C88.1849 27.7444 87.3596 28 86.3795 28C85.1586 28 84.1785 27.5417 83.4391 26.6251C82.6998 25.6909 82.3301 24.413 82.3301 22.7913C82.3301 21.7866 82.459 20.7554 82.7169 19.6978C82.9921 18.6226 83.3961 17.6443 83.9292 16.763C84.4622 15.864 85.1328 15.1325 85.941 14.5685C86.7663 14.0044 87.7293 13.7224 88.8297 13.7224C89.2252 13.7224 89.6121 13.7753 89.9904 13.881C90.3687 13.9868 90.7126 14.1454 91.0221 14.3569C91.3316 14.5685 91.5981 14.8329 91.8216 15.1501C92.0452 15.4674 92.2085 15.8376 92.3117 16.2606H92.4149L94.014 8.11709H96L92.518 25.8848H94.4009L94.0656 27.6827H92.2859ZM86.9211 26.1492C87.5057 26.1492 88.013 26.0258 88.4428 25.779C88.8899 25.5323 89.3112 25.2062 89.7067 24.8008C90.1365 24.3601 90.489 23.8754 90.7642 23.3466C91.0393 22.8178 91.2456 22.2096 91.3832 21.5222L91.9248 18.746C92.0108 18.3229 92.0194 17.9263 91.9506 17.5562C91.8818 17.1684 91.7271 16.8335 91.4863 16.5515C91.2456 16.2518 90.9189 16.0139 90.5062 15.8376C90.0936 15.6613 89.5949 15.5732 89.0103 15.5732C87.927 15.5732 87.0329 15.9345 86.3279 16.6572C85.6229 17.3799 85.1414 18.4023 84.8835 19.7243L84.4966 21.7073C84.4106 22.2008 84.3677 22.6503 84.3677 23.0557C84.3677 23.9547 84.5654 24.695 84.9609 25.2767C85.3736 25.8584 86.027 26.1492 86.9211 26.1492Z" fill="white"/>
</svg>
